<?xml version="1.0"?>
<svg width="67" height="67" xmlns="http://www.w3.org/2000/svg" xmlns:svg="http://www.w3.org/2000/svg" enable-background="new 0 0 67 67" version="1.1" xml:space="preserve">

 <g class="layer">
  <title>Layer 1</title>
  <path clip-rule="evenodd" d="m50.66,47.64l0,-11.96c0,-6.4 -3.35,-9.38 -7.82,-9.38c-3.6,0 -5.22,2.02 -6.12,3.44l0,-2.95l-6.79,0c0.09,1.96 0,20.85 0,20.85l6.79,0l0,-11.64c0,-0.62 0.05,-1.25 0.23,-1.69c0.49,-1.25 1.6,-2.53 3.48,-2.53c2.46,0 3.44,1.91 3.44,4.71l0,11.15l6.79,0zm-27.88,-23.7c2.37,0 3.84,-1.6 3.84,-3.6c-0.04,-2.04 -1.47,-3.6 -3.8,-3.6s-3.84,1.56 -3.84,3.6c0,2 1.48,3.6 3.76,3.6l0.04,0zm11.04,39.88c-16.57,0 -30,-13.71 -30,-30.62c0,-16.91 13.43,-30.62 30,-30.62s30,13.71 30,30.62c0,16.91 -13.43,30.62 -30,30.62zm-7.65,-16.19l0,-20.85l-6.79,0l0,20.85l6.79,0z" fill="#0226f4" fill-rule="evenodd" id="svg_1"/>
 </g>
</svg>